<mxfile host="app.diagrams.net" agent="Mozilla/5.0 (Windows NT 10.0; Win64; x64) AppleWebKit/537.36 (KHTML, like Gecko) Chrome/129.0.0.0 Safari/537.36" version="24.7.16">
  <diagram name="StrÃ¡nka-1" id="fc4XweI_5Ta6iMzx62yC">
    <mxGraphModel dx="934" dy="494" grid="0" gridSize="10" guides="1" tooltips="1" connect="1" arrows="1" fold="1" page="1" pageScale="1" pageWidth="827" pageHeight="1169" math="0" shadow="0">
      <root>
        <mxCell id="0" />
        <mxCell id="1" parent="0" />
        <mxCell id="3fG_hNFmJDAJN2kBHSkk-1" value="Start" style="ellipse;whiteSpace=wrap;html=1;fontFamily=Times New Roman;fontStyle=1;strokeWidth=2;" vertex="1" parent="1">
          <mxGeometry x="310" y="110" width="80" height="40" as="geometry" />
        </mxCell>
        <mxCell id="3fG_hNFmJDAJN2kBHSkk-4" value="Insert number&lt;div&gt;(1 - 9)&lt;/div&gt;" style="rounded=0;whiteSpace=wrap;html=1;fontFamily=Times New Roman;" vertex="1" parent="1">
          <mxGeometry x="310" y="540" width="80" height="40" as="geometry" />
        </mxCell>
        <mxCell id="3fG_hNFmJDAJN2kBHSkk-10" style="edgeStyle=orthogonalEdgeStyle;rounded=0;orthogonalLoop=1;jettySize=auto;html=1;exitX=0.5;exitY=1;exitDx=0;exitDy=0;entryX=0.5;entryY=0;entryDx=0;entryDy=0;" edge="1" parent="1" source="3fG_hNFmJDAJN2kBHSkk-5" target="3fG_hNFmJDAJN2kBHSkk-6">
          <mxGeometry relative="1" as="geometry" />
        </mxCell>
        <mxCell id="3fG_hNFmJDAJN2kBHSkk-5" value="&lt;font face=&quot;Times New Roman&quot;&gt;Numbers&lt;/font&gt;&lt;div&gt;&lt;font face=&quot;Times New Roman&quot;&gt;(1 - 9)&lt;/font&gt;&lt;/div&gt;" style="rhombus;whiteSpace=wrap;html=1;" vertex="1" parent="1">
          <mxGeometry x="313.75" y="340" width="72.5" height="70" as="geometry" />
        </mxCell>
        <mxCell id="3fG_hNFmJDAJN2kBHSkk-11" style="edgeStyle=orthogonalEdgeStyle;rounded=0;orthogonalLoop=1;jettySize=auto;html=1;exitX=0.5;exitY=1;exitDx=0;exitDy=0;entryX=0.5;entryY=0;entryDx=0;entryDy=0;" edge="1" parent="1" source="3fG_hNFmJDAJN2kBHSkk-6" target="3fG_hNFmJDAJN2kBHSkk-4">
          <mxGeometry relative="1" as="geometry" />
        </mxCell>
        <mxCell id="3fG_hNFmJDAJN2kBHSkk-13" style="edgeStyle=orthogonalEdgeStyle;rounded=0;orthogonalLoop=1;jettySize=auto;html=1;exitX=1;exitY=0.5;exitDx=0;exitDy=0;entryX=1;entryY=0.5;entryDx=0;entryDy=0;" edge="1" parent="1" source="3fG_hNFmJDAJN2kBHSkk-6" target="3fG_hNFmJDAJN2kBHSkk-5">
          <mxGeometry relative="1" as="geometry" />
        </mxCell>
        <mxCell id="3fG_hNFmJDAJN2kBHSkk-6" value="Can you insert&lt;br&gt;this number ?" style="rhombus;whiteSpace=wrap;html=1;fontFamily=Times New Roman;" vertex="1" parent="1">
          <mxGeometry x="290" y="440" width="120" height="70" as="geometry" />
        </mxCell>
        <mxCell id="3fG_hNFmJDAJN2kBHSkk-8" value="" style="endArrow=classic;html=1;rounded=0;exitX=0.5;exitY=1;exitDx=0;exitDy=0;entryX=0.5;entryY=0;entryDx=0;entryDy=0;" edge="1" parent="1" source="3fG_hNFmJDAJN2kBHSkk-1" target="3fG_hNFmJDAJN2kBHSkk-31">
          <mxGeometry width="50" height="50" relative="1" as="geometry">
            <mxPoint x="433.75" y="160" as="sourcePoint" />
            <mxPoint x="353.7499999999999" y="170" as="targetPoint" />
          </mxGeometry>
        </mxCell>
        <mxCell id="3fG_hNFmJDAJN2kBHSkk-9" value="" style="endArrow=classic;html=1;rounded=0;exitX=0.5;exitY=1;exitDx=0;exitDy=0;entryX=0.5;entryY=0;entryDx=0;entryDy=0;" edge="1" parent="1" source="3fG_hNFmJDAJN2kBHSkk-31" target="3fG_hNFmJDAJN2kBHSkk-5">
          <mxGeometry width="50" height="50" relative="1" as="geometry">
            <mxPoint x="349.9999999999999" y="240" as="sourcePoint" />
            <mxPoint x="349.71" y="360" as="targetPoint" />
          </mxGeometry>
        </mxCell>
        <mxCell id="3fG_hNFmJDAJN2kBHSkk-12" value="Yes" style="text;html=1;align=center;verticalAlign=middle;whiteSpace=wrap;rounded=0;fontFamily=Times New Roman;" vertex="1" parent="1">
          <mxGeometry x="350" y="510" width="26.25" height="10" as="geometry" />
        </mxCell>
        <mxCell id="3fG_hNFmJDAJN2kBHSkk-14" value="No" style="text;html=1;align=center;verticalAlign=middle;whiteSpace=wrap;rounded=0;fontFamily=Times New Roman;" vertex="1" parent="1">
          <mxGeometry x="400" y="460" width="26.25" height="10" as="geometry" />
        </mxCell>
        <mxCell id="3fG_hNFmJDAJN2kBHSkk-15" value="" style="endArrow=classic;html=1;rounded=0;exitX=0;exitY=0.5;exitDx=0;exitDy=0;entryX=1;entryY=0.5;entryDx=0;entryDy=0;" edge="1" parent="1" source="3fG_hNFmJDAJN2kBHSkk-5" target="3fG_hNFmJDAJN2kBHSkk-17">
          <mxGeometry width="50" height="50" relative="1" as="geometry">
            <mxPoint x="180" y="450" as="sourcePoint" />
            <mxPoint x="270" y="380" as="targetPoint" />
          </mxGeometry>
        </mxCell>
        <mxCell id="3fG_hNFmJDAJN2kBHSkk-16" value="Number (1 - 9)" style="text;html=1;align=center;verticalAlign=middle;whiteSpace=wrap;rounded=0;fontFamily=Times New Roman;" vertex="1" parent="1">
          <mxGeometry x="350" y="420" width="50" height="10" as="geometry" />
        </mxCell>
        <mxCell id="3fG_hNFmJDAJN2kBHSkk-24" style="edgeStyle=orthogonalEdgeStyle;rounded=0;orthogonalLoop=1;jettySize=auto;html=1;exitX=0.5;exitY=0;exitDx=0;exitDy=0;entryX=0.5;entryY=1;entryDx=0;entryDy=0;" edge="1" parent="1" source="3fG_hNFmJDAJN2kBHSkk-17" target="3fG_hNFmJDAJN2kBHSkk-23">
          <mxGeometry relative="1" as="geometry" />
        </mxCell>
        <mxCell id="3fG_hNFmJDAJN2kBHSkk-17" value="Backtrack&lt;div&gt;(one cell back)&lt;/div&gt;" style="rounded=0;whiteSpace=wrap;html=1;fontFamily=Times New Roman;" vertex="1" parent="1">
          <mxGeometry x="160" y="355" width="80" height="40" as="geometry" />
        </mxCell>
        <mxCell id="3fG_hNFmJDAJN2kBHSkk-18" value="Out of numbers" style="text;html=1;align=center;verticalAlign=middle;whiteSpace=wrap;rounded=0;fontFamily=Times New Roman;" vertex="1" parent="1">
          <mxGeometry x="260" y="340" width="50" height="20" as="geometry" />
        </mxCell>
        <mxCell id="3fG_hNFmJDAJN2kBHSkk-25" style="edgeStyle=orthogonalEdgeStyle;rounded=0;orthogonalLoop=1;jettySize=auto;html=1;exitX=1;exitY=0.5;exitDx=0;exitDy=0;" edge="1" parent="1" source="3fG_hNFmJDAJN2kBHSkk-23">
          <mxGeometry relative="1" as="geometry">
            <mxPoint x="350" y="339.9999999999998" as="targetPoint" />
          </mxGeometry>
        </mxCell>
        <mxCell id="3fG_hNFmJDAJN2kBHSkk-23" value="Insert 0" style="rounded=0;whiteSpace=wrap;html=1;fontFamily=Times New Roman;" vertex="1" parent="1">
          <mxGeometry x="160" y="270" width="80" height="40" as="geometry" />
        </mxCell>
        <mxCell id="3fG_hNFmJDAJN2kBHSkk-26" value="Try different number" style="text;html=1;align=center;verticalAlign=middle;whiteSpace=wrap;rounded=0;fontFamily=Times New Roman;" vertex="1" parent="1">
          <mxGeometry x="250" y="260" width="70" height="20" as="geometry" />
        </mxCell>
        <mxCell id="3fG_hNFmJDAJN2kBHSkk-28" value="" style="endArrow=classic;html=1;rounded=0;exitX=0;exitY=0.5;exitDx=0;exitDy=0;entryX=1;entryY=0.5;entryDx=0;entryDy=0;" edge="1" parent="1" source="3fG_hNFmJDAJN2kBHSkk-31" target="3fG_hNFmJDAJN2kBHSkk-29">
          <mxGeometry width="50" height="50" relative="1" as="geometry">
            <mxPoint x="309.9999999999999" y="220" as="sourcePoint" />
            <mxPoint x="260" y="190" as="targetPoint" />
          </mxGeometry>
        </mxCell>
        <mxCell id="3fG_hNFmJDAJN2kBHSkk-29" value="End" style="ellipse;whiteSpace=wrap;html=1;fontFamily=Times New Roman;fontStyle=1;strokeWidth=2;" vertex="1" parent="1">
          <mxGeometry x="140" y="200" width="80" height="40" as="geometry" />
        </mxCell>
        <mxCell id="3fG_hNFmJDAJN2kBHSkk-30" value="No empty cells" style="text;html=1;align=center;verticalAlign=middle;whiteSpace=wrap;rounded=0;fontFamily=Times New Roman;" vertex="1" parent="1">
          <mxGeometry x="243.75" y="190" width="70" height="20" as="geometry" />
        </mxCell>
        <mxCell id="3fG_hNFmJDAJN2kBHSkk-31" value="&lt;span style=&quot;font-family: &amp;quot;Times New Roman&amp;quot;;&quot;&gt;Find&lt;/span&gt;&lt;div&gt;&lt;span style=&quot;font-family: &amp;quot;Times New Roman&amp;quot;;&quot;&gt;empty&amp;nbsp;&lt;/span&gt;&lt;span style=&quot;font-family: &amp;quot;Times New Roman&amp;quot;; background-color: initial;&quot;&gt;cell&lt;/span&gt;&lt;/div&gt;&lt;div&gt;&lt;span style=&quot;font-family: &amp;quot;Times New Roman&amp;quot;; background-color: initial;&quot;&gt;(0)&lt;/span&gt;&lt;/div&gt;" style="rhombus;whiteSpace=wrap;html=1;" vertex="1" parent="1">
          <mxGeometry x="313.75" y="185" width="72.5" height="70" as="geometry" />
        </mxCell>
        <mxCell id="3fG_hNFmJDAJN2kBHSkk-33" value="" style="endArrow=classic;html=1;rounded=0;exitX=1;exitY=0.5;exitDx=0;exitDy=0;entryX=1;entryY=0.5;entryDx=0;entryDy=0;" edge="1" parent="1" source="3fG_hNFmJDAJN2kBHSkk-4" target="3fG_hNFmJDAJN2kBHSkk-31">
          <mxGeometry width="50" height="50" relative="1" as="geometry">
            <mxPoint x="410" y="560" as="sourcePoint" />
            <mxPoint x="460" y="510" as="targetPoint" />
            <Array as="points">
              <mxPoint x="450" y="560" />
              <mxPoint x="450" y="220" />
            </Array>
          </mxGeometry>
        </mxCell>
      </root>
    </mxGraphModel>
  </diagram>
</mxfile>
